<svg width="216" height="146" xmlns="http://www.w3.org/2000/svg">

 <g>
  <title>background</title>
  <rect fill="none" id="canvas_background" height="402" width="582" y="-1" x="-1"/>
 </g>
 <g>
  <title>Layer 1</title>
  <path id="svg_1" d="m168.86,37.966l-11.08,-11.08c-1.52,-1.52 -3.367,-2.28 -5.54,-2.28c-2.172,0 -4.02,0.76 -5.54,2.28l-53.446,53.528l-23.954,-24.034c-1.52,-1.522 -3.367,-2.282 -5.54,-2.282c-2.172,0 -4.02,0.76 -5.54,2.28l-11.08,11.082c-1.52,1.522 -2.28,3.37 -2.28,5.542c0,2.172 0.76,4.02 2.28,5.54l29.493,29.493l11.08,11.08c1.52,1.52 3.368,2.28 5.54,2.28c2.173,0 4.02,-0.76 5.54,-2.28l11.082,-11.08l58.985,-58.985c1.52,-1.52 2.283,-3.37 2.283,-5.54c0,-2.174 -0.76,-4.02 -2.28,-5.54l-0.003,-0.004z" fill="#AEB0B5"/>
 </g>
</svg>
