<?xml version="1.0" encoding="UTF-8" standalone="no"?>
<svg
  xmlns="http://www.w3.org/2000/svg"
   width="476"
   height="476"
   viewBox="0 0 476.22069 476.22075">
  <path
    style="display:inline;fill:#dce4ef;fill-opacity:1;fill-rule:evenodd;stroke-width:0.999999"
    d="M 341.54883,5.5585938 A 340.15748,340.15748 0 0 0 2.6992188,346.21289 340.15748,340.15748 0 0 0 343.10742,685.87109 340.15748,340.15748 0 0 0 683.01367,345.71484 H 566.77148 c 4e-4,0.26863 0.0333,0.52919 0.0293,0.79883 -0.0312,1.64299 -0.14687,3.26429 -0.3418,4.86133 -0.19492,1.59704 -0.47008,3.16937 -0.82031,4.71289 -0.70045,3.08705 -1.70332,6.06108 -2.97461,8.88867 -1.27128,2.8276 -2.81098,5.50995 -4.58594,8.01758 -1.77495,2.50763 -3.78461,4.83966 -5.99609,6.9668 -2.21147,2.12714 -4.62424,4.04824 -7.20508,5.73437 -2.58083,1.68613 -5.32985,3.13766 -8.21289,4.32227 -2.88303,1.1846 -5.89949,2.10204 -9.01758,2.72461 -3.11808,0.62256 -6.33707,0.94922 -9.62304,0.94922 H 470.8457 v 7.99609 h 31.98438 c 1.67422,0 3.32751,0.087 4.95703,0.25391 1.62952,0.16689 3.23589,0.4147 4.8125,0.74023 3.15323,0.65106 6.19157,1.61151 9.08398,2.84766 2.89241,1.23614 5.63908,2.74866 8.20508,4.5039 2.566,1.75524 4.95101,3.75259 7.125,5.96094 2.17399,2.20835 4.13713,4.62718 5.85352,7.22266 1.71639,2.59547 3.18766,5.36854 4.38086,8.28515 1.19319,2.91662 2.10848,5.97667 2.71289,9.14844 0.3022,1.58589 0.52526,3.19864 0.66797,4.83594 0.1427,1.6373 0.20467,3.29804 0.17968,4.97851 -0.0312,1.64299 -0.14686,3.26625 -0.34179,4.86328 -0.19493,1.59704 -0.47009,3.16937 -0.82032,4.7129 -0.70045,3.08704 -1.70332,6.05912 -2.9746,8.88671 -1.27129,2.8276 -2.81098,5.50996 -4.58594,8.01758 -1.77496,2.50763 -3.78462,4.83966 -5.9961,6.9668 -2.21147,2.12714 -4.62424,4.05019 -7.20507,5.73633 -2.58084,1.68613 -5.32986,3.1357 -8.21289,4.32031 -2.88304,1.18461 -5.8995,2.104 -9.01758,2.72656 -3.11809,0.62257 -6.33707,0.94922 -9.62305,0.94922 H 470.8457 v 7.99609 c 1.67423,0 3.32752,0.0851 4.95703,0.25196 1.62952,0.16689 3.23394,0.4147 4.81055,0.74023 3.15323,0.65107 6.19353,1.61151 9.08594,2.84766 2.89241,1.23614 5.63713,2.74866 8.20312,4.50391 2.566,1.75524 4.95297,3.75258 7.12696,5.96093 2.17399,2.20835 4.13517,4.62718 5.85156,7.22266 1.71639,2.59548 3.18766,5.36854 4.38086,8.28515 1.19319,2.91662 2.10848,5.97667 2.71289,9.14844 0.3022,1.58589 0.52722,3.20059 0.66992,4.83789 0.14271,1.63731 0.20273,3.29805 0.17774,4.97852 -0.025,1.64299 -0.13405,3.26429 -0.32422,4.86133 -0.19017,1.59703 -0.46179,3.16937 -0.8086,4.71289 -0.69362,3.08704 -1.69199,6.05912 -2.96093,8.88672 -1.26895,2.82759 -2.80806,5.50995 -4.58399,8.01757 -1.77593,2.50763 -3.78735,4.84162 -6.00195,6.96875 -2.2146,2.12714 -4.63186,4.04825 -7.2168,5.73438 -2.58493,1.68613 -5.33767,3.1357 -8.22461,4.32031 -2.88694,1.18461 -5.90867,2.104 -9.02929,2.72656 -3.12063,0.62257 -6.34098,0.94922 -9.62696,0.94922 h -133.4375 c -3.19852,0 -6.39092,-0.15639 -9.56445,-0.46875 -3.17353,-0.31235 -6.32762,-0.78154 -9.45117,-1.40625 -3.12356,-0.62471 -6.21704,-1.40473 -9.26563,-2.34179 -3.04859,-0.93707 -6.05332,-2.02987 -9.00195,-3.2793 l -116.2461,-48.97852 c -2.94862,-1.22443 -5.95337,-2.30395 -9.00195,-3.23632 -3.04858,-0.93238 -6.14012,-1.71671 -9.26367,-2.34766 -3.12355,-0.63095 -6.2796,-1.10953 -9.45312,-1.42969 -3.17353,-0.32016 -6.36594,-0.48242 -9.56446,-0.48242 h -2.89844 c -1.66172,0 -3.28295,-0.16597 -4.84765,-0.48438 -1.5647,-0.3184 -3.07176,-0.78934 -4.50781,-1.39453 -1.43606,-0.60518 -2.8004,-1.34473 -4.07618,-2.20507 -1.27577,-0.86035 -2.463,-1.84191 -3.54687,-2.92579 -1.08387,-1.08387 -2.06349,-2.27109 -2.92383,-3.54687 -0.86034,-1.27578 -1.60184,-2.64012 -2.20703,-4.07617 -0.60519,-1.43606 -1.07417,-2.94311 -1.39258,-4.50781 -0.31841,-1.56471 -0.48633,-3.18593 -0.48633,-4.84766 V 273.74805 c 0,-1.66173 0.16792,-3.28296 0.48633,-4.84766 0.31841,-1.5647 0.78739,-3.07371 1.39258,-4.50977 0.60519,-1.43605 1.34669,-2.80039 2.20703,-4.07617 0.86034,-1.27577 1.83996,-2.463 2.92383,-3.54687 1.08387,-1.08387 2.2711,-2.06349 3.54687,-2.92383 1.27578,-0.86034 2.64012,-1.60184 4.07618,-2.20703 1.43605,-0.60519 2.94311,-1.07417 4.50781,-1.39258 1.5647,-0.31841 3.18593,-0.48633 4.84765,-0.48633 h 6.69727 c 1.71171,0 3.41524,-0.0903 5.10156,-0.27148 1.68633,-0.18117 3.35623,-0.45251 5.00391,-0.8086 1.64767,-0.35608 3.27144,-0.7975 4.86719,-1.32226 1.59574,-0.52476 3.16281,-1.13313 4.69336,-1.82031 1.53054,-0.68719 3.0245,-1.45352 4.47656,-2.29688 1.45206,-0.84336 2.86235,-1.76257 4.22265,-2.75586 1.36031,-0.99329 2.67051,-2.06029 3.92579,-3.19726 1.25527,-1.13698 2.45482,-2.34474 3.59179,-3.61914 l 99.25391,-111.64844 c 2.28644,-2.56131 4.6955,-4.98485 7.21289,-7.26563 2.51739,-2.28078 5.14423,-4.41928 7.86719,-6.4082 2.72295,-1.98892 5.54216,-3.82793 8.44531,-5.51367 2.90314,-1.68574 5.88931,-3.216653 8.94726,-4.587892 3.05796,-1.37124 6.18762,-2.583493 9.375,-3.628907 3.18739,-1.045413 6.43317,-1.924547 9.72461,-2.632812 3.29145,-0.708266 6.62793,-1.245675 9.99805,-1.605469 3.37012,-0.359794 6.77385,-0.542969 10.19727,-0.542969 h 66.36914 c 1.67422,0 3.32751,0.08702 4.95703,0.253907 1.62952,0.16689 3.23589,0.414701 4.8125,0.740234 3.15322,0.651065 6.19158,1.611511 9.08398,2.847656 2.89241,1.236146 5.63908,2.748666 8.20508,4.503906 2.566,1.755241 4.95101,3.752586 7.125,5.960936 2.17399,2.20835 4.13713,4.62718 5.85352,7.22266 1.71639,2.59547 3.18766,5.36854 4.38086,8.28515 1.19319,2.91662 2.10653,5.97667 2.71093,9.14844 0.30221,1.58589 0.52722,3.19864 0.66993,4.83594 0.1427,1.6373 0.20467,3.29804 0.17968,4.97852 -0.0312,1.64298 -0.14686,3.26624 -0.34179,4.86328 -0.19493,1.59703 -0.47009,3.16936 -0.82032,4.71289 -0.70045,3.08704 -1.70332,6.05912 -2.97461,8.88672 -1.27128,2.82759 -2.81097,5.50995 -4.58593,8.01757 -1.77496,2.50763 -3.78462,4.83966 -5.9961,6.9668 -2.21147,2.12714 -4.62424,4.0502 -7.20507,5.73633 -2.58084,1.68613 -5.32986,3.1357 -8.2129,4.32031 -2.88303,1.18461 -5.89949,2.104 -9.01757,2.72656 -3.11809,0.62257 -6.33708,0.94922 -9.62305,0.94922 h -48.07813 l -7.09765,7.9961 h 135.9375 c 1.67422,0 3.32751,0.0851 4.95703,0.25195 1.62952,0.16689 3.23589,0.4147 4.8125,0.74023 3.15323,0.65107 6.19157,1.61151 9.08398,2.84766 2.89241,1.23615 5.63908,2.74867 8.20508,4.50391 2.566,1.75524 4.95101,3.75258 7.125,5.96093 2.17399,2.20835 4.13713,4.62718 5.85352,7.22266 1.71639,2.59548 3.18766,5.36854 4.38086,8.28516 1.19319,2.91661 2.10848,5.97666 2.71289,9.14843 0.3022,1.58589 0.52526,3.20059 0.66797,4.83789 0.1427,1.63731 0.20467,3.29805 0.17968,4.97852 -0.0312,1.64299 -0.14686,3.26429 -0.34179,4.86133 -0.19493,1.59704 -0.47009,3.16937 -0.82032,4.71289 -0.70045,3.08704 -1.70332,6.05912 -2.9746,8.88672 -1.27129,2.82759 -2.81098,5.50995 -4.58594,8.01758 -1.77496,2.50762 -3.78462,4.84161 -5.9961,6.96875 -2.21147,2.12713 -4.62424,4.04824 -7.20507,5.73437 -2.58084,1.68613 -5.32986,3.13571 -8.21289,4.32031 -2.88304,1.18461 -5.8995,2.104 -9.01758,2.72657 -3.11809,0.62256 -6.33707,0.94921 -9.62305,0.94921 H 470.8457 v 7.9961 h 47.97657 c 1.67422,0 3.32946,0.0851 4.95898,0.25195 1.62952,0.16689 3.23393,0.41666 4.81055,0.74219 3.15322,0.65106 6.19157,1.60956 9.08398,2.8457 2.89241,1.23615 5.63908,2.74867 8.20508,4.50391 2.566,1.75524 4.95296,3.75454 7.12695,5.96289 2.174,2.20835 4.13517,4.62523 5.85157,7.2207 1.71639,2.59548 3.18766,5.36854 4.38085,8.28516 1.1932,2.91661 2.10849,5.97862 2.71289,9.15039 0.30221,1.58588 0.52527,3.19863 0.66797,4.83594 0.101,1.15876 0.10935,2.34245 0.12696,3.52343 L 683.01367,344.7168 A 340.15748,340.15748 0 0 0 342.10938,5.5585938 a 340.15748,340.15748 0 0 0 -0.56055,0 z"
    transform="scale(0.55)" />
</svg>
