<?xml version="1.0" encoding="UTF-8" standalone="no"?>
<svg
  xmlns="http://www.w3.org/2000/svg"
   width="130mm"
   height="130mm"
   viewBox="0 0 130 130">
  <path
    id="path871"
    style="fill:#dce5ef;fill-opacity:1;fill-rule:evenodd;stroke-width:0.999999"
    d="M 245.12891 0 A 245.66929 245.66929 0 0 0 0 246.0293 A 245.66929 245.66929 0 0 0 245.84961 491.33789 A 245.66929 245.66929 0 0 0 491.33789 245.66992 L 245.7832 245.66992 L 245.66992 245.66992 L 205.90039 245.78711 L 368.76953 245.78711 C 368.77709 245.89445 368.78401 246.0009 368.78125 246.10938 C 368.76235 247.01261 368.70071 247.9033 368.59375 248.78125 C 368.48652 249.65923 368.33496 250.52454 368.14258 251.37305 C 367.75752 253.07013 367.20668 254.70532 366.50781 256.25977 C 365.80894 257.81425 364.96209 259.28747 363.98633 260.66602 C 363.01057 262.04456 361.90521 263.32667 360.68945 264.49609 C 359.47369 265.66544 358.14731 266.72147 356.72852 267.64844 C 355.30968 268.57537 353.79979 269.37414 352.21484 270.02539 C 350.62994 270.67664 348.97194 271.18101 347.25781 271.52344 C 345.54365 271.86579 343.77326 272.04492 341.9668 272.04492 L 316.03125 272.04492 L 316.03125 276.44141 L 333.61328 276.44141 C 334.53367 276.44141 335.44402 276.48861 336.33984 276.58008 C 337.23567 276.67188 338.11762 276.80718 338.98438 276.98633 C 340.71782 277.34425 342.38843 277.87314 343.97852 278.55273 C 345.5686 279.23229 347.0796 280.06442 348.49023 281.0293 C 349.90087 281.99425 351.21109 283.09262 352.40625 284.30664 C 353.60141 285.52066 354.6814 286.84854 355.625 288.27539 C 356.56856 289.70224 357.37723 291.2286 358.0332 292.83203 C 358.68914 294.43542 359.19122 296.11764 359.52344 297.86133 C 359.68974 298.73315 359.81201 299.61947 359.89062 300.51953 C 359.96773 301.41966 360.00535 302.33203 359.99023 303.25586 C 359.97134 304.15909 359.9097 305.05174 359.80273 305.92969 C 359.69551 306.80767 359.54394 307.67099 359.35156 308.51953 C 358.9665 310.21661 358.41567 311.85181 357.7168 313.40625 C 357.01789 314.96073 356.17111 316.43392 355.19531 317.8125 C 354.21955 319.19104 353.1142 320.47319 351.89844 321.64258 C 350.68271 322.81196 349.3563 323.86991 347.9375 324.79688 C 346.5187 325.7238 345.00678 326.52066 343.42188 327.17188 C 341.83693 327.82313 340.17897 328.32787 338.46484 328.66992 C 336.75068 329.01231 334.98224 329.19336 333.17578 329.19336 L 316.03125 329.19336 L 316.03125 333.58789 C 316.95164 333.58789 317.86199 333.63472 318.75781 333.72656 C 319.6536 333.81844 320.53558 333.95562 321.40234 334.13477 C 323.13579 334.49269 324.80644 335.01966 326.39648 335.69922 C 327.98661 336.37878 329.49562 337.21083 330.90625 338.17578 C 332.31688 339.14069 333.62906 340.2391 334.82422 341.45312 C 336.01934 342.66718 337.09742 343.99698 338.04102 345.42383 C 338.98457 346.85071 339.79328 348.37513 340.44922 349.97852 C 341.10516 351.5819 341.60919 353.26417 341.94141 355.00781 C 342.10771 355.87967 342.23036 356.76592 342.30859 357.66602 C 342.38721 358.56611 342.42137 359.48047 342.40625 360.4043 C 342.39113 361.30753 342.33321 362.19819 342.22852 363.07617 C 342.12371 363.95412 341.97369 364.81943 341.7832 365.66797 C 341.40189 367.36501 340.85384 368.99825 340.15625 370.55273 C 339.45866 372.10718 338.61305 373.58239 337.63672 374.96094 C 336.66039 376.33948 335.5534 377.62155 334.33594 378.79102 C 333.11844 379.96036 331.79021 381.01643 330.36914 381.94336 C 328.94808 382.87029 327.43476 383.66715 325.84766 384.31836 C 324.26056 384.96957 322.59834 385.47631 320.88281 385.81836 C 319.16725 386.16071 317.39822 386.33984 315.5918 386.33984 L 242.23438 386.33984 C 240.47603 386.33984 238.72119 386.254 236.97656 386.08203 C 235.23193 385.91044 233.4984 385.65215 231.78125 385.30859 C 230.0641 384.96503 228.36345 384.53663 226.6875 384.02148 C 225.01155 383.50633 223.35927 382.9056 221.73828 382.21875 L 157.83398 355.29297 C 156.21299 354.61983 154.5607 354.02625 152.88477 353.51367 C 151.20882 353.00109 149.50818 352.56962 147.79102 352.22266 C 146.07387 351.8757 144.34033 351.61363 142.5957 351.4375 C 140.85107 351.26137 139.09431 351.17188 137.33594 351.17188 L 135.74414 351.17188 C 134.83061 351.17188 133.93832 351.08124 133.07812 350.90625 C 132.21795 350.73126 131.38907 350.47127 130.59961 350.13867 C 129.81014 349.80607 129.06073 349.39875 128.35938 348.92578 C 127.65803 348.45281 127.00602 347.91424 126.41016 347.31836 C 125.81431 346.72255 125.2757 346.07051 124.80273 345.36914 C 124.32976 344.66781 123.92256 343.91642 123.58984 343.12695 C 123.25714 342.33749 122.99925 341.51057 122.82422 340.65039 C 122.64919 339.79021 122.55664 338.89792 122.55664 337.98438 L 122.55664 206.10742 C 122.55664 205.19391 122.64919 204.30163 122.82422 203.44141 C 122.99925 202.58122 123.25713 201.75236 123.58984 200.96289 C 123.92256 200.17346 124.32976 199.42402 124.80273 198.72266 C 125.2757 198.02133 125.81431 197.36733 126.41016 196.77148 C 127.00602 196.1756 127.65803 195.63703 128.35938 195.16406 C 129.06073 194.69109 129.81014 194.28377 130.59961 193.95117 C 131.38907 193.61857 132.21795 193.36054 133.07812 193.18555 C 133.93832 193.01055 134.83061 192.91797 135.74414 192.91797 L 139.42578 192.91797 C 140.36678 192.91797 141.30342 192.86931 142.23047 192.76953 C 143.15752 192.66968 144.07466 192.52 144.98047 192.32422 C 145.88627 192.12844 146.77899 191.88603 147.65625 191.59766 C 148.5335 191.30928 149.39492 190.97561 150.23633 190.59766 C 151.07774 190.22008 151.89901 189.79762 152.69727 189.33398 C 153.49554 188.87035 154.27171 188.36443 155.01953 187.81836 C 155.76735 187.27233 156.48765 186.68752 157.17773 186.0625 C 157.86782 185.43744 158.5273 184.77288 159.15234 184.07227 L 213.7168 122.69336 C 214.97377 121.2853 216.29771 119.95304 217.68164 118.69922 C 219.06556 117.44536 220.50892 116.2692 222.00586 115.17578 C 223.50278 114.0824 225.05245 113.07322 226.64844 112.14648 C 228.24444 111.21974 229.88726 110.37687 231.56836 109.62305 C 233.24949 108.86918 234.96844 108.20362 236.7207 107.62891 C 238.47293 107.05419 240.25891 106.57101 242.06836 106.18164 C 243.87781 105.79227 245.71177 105.4965 247.56445 105.29883 C 249.41718 105.10116 251.28791 105 253.16992 105 L 289.65625 105 C 290.57664 105 291.48504 105.04721 292.38086 105.13867 C 293.27668 105.23051 294.16058 105.36773 295.02734 105.54688 C 296.76079 105.9048 298.4314 106.43177 300.02148 107.11133 C 301.61157 107.79089 303.12062 108.62294 304.53125 109.58789 C 305.94188 110.5528 307.25406 111.65121 308.44922 112.86523 C 309.64434 114.07929 310.72246 115.40905 311.66602 116.83594 C 312.60957 118.26278 313.41828 119.78724 314.07422 121.39062 C 314.73016 122.99401 315.23223 124.67627 315.56445 126.41992 C 315.73075 127.29175 315.85536 128.17803 315.93359 129.07812 C 316.01221 129.97822 316.04637 130.89055 316.03125 131.81445 C 316.01613 132.71761 315.95071 133.6103 315.84375 134.48828 C 315.73652 135.36623 315.58496 136.23154 315.39258 137.08008 C 315.00744 138.77716 314.45668 140.41036 313.75781 141.96484 C 313.05894 143.51929 312.21209 144.99446 311.23633 146.37305 C 310.26057 147.75155 309.15518 149.03374 307.93945 150.20312 C 306.72369 151.37251 305.39731 152.42854 303.97852 153.35547 C 302.55968 154.28244 301.04979 155.07922 299.46484 155.73047 C 297.8799 156.38168 296.21999 156.88804 294.50586 157.23047 C 292.79169 157.57282 291.02326 157.75195 289.2168 157.75195 L 262.78516 157.75195 L 258.88477 162.14844 L 333.61523 162.14844 C 334.53562 162.14844 335.44402 162.19369 336.33984 162.28516 C 337.23567 162.37704 338.11961 162.51421 338.98633 162.69336 C 340.71981 163.05128 342.39038 163.57829 343.98047 164.25781 C 345.57059 164.93737 347.0796 165.76942 348.49023 166.73438 C 349.90087 167.69933 351.21105 168.7977 352.40625 170.01172 C 353.60134 171.22574 354.68144 172.55561 355.625 173.98242 C 356.5686 175.40931 357.37727 176.93372 358.0332 178.53711 C 358.68918 180.1405 359.19317 181.82276 359.52539 183.56641 C 359.69131 184.43827 359.81396 185.32451 359.89258 186.22461 C 359.97119 187.12474 360.00535 188.03906 359.99023 188.96289 C 359.97134 189.86612 359.9097 190.75678 359.80273 191.63477 C 359.69551 192.51271 359.54394 193.37802 359.35156 194.22656 C 358.9665 195.92365 358.41567 197.55685 357.7168 199.11133 C 357.01789 200.66573 356.17107 202.14099 355.19531 203.51953 C 354.21951 204.89808 353.1142 206.18022 351.89844 207.34961 C 350.68271 208.519 349.3563 209.57502 347.9375 210.50195 C 346.5187 211.42888 345.00881 212.2257 343.42383 212.87695 C 341.83892 213.52817 340.18096 214.03453 338.4668 214.37695 C 336.75263 214.71926 334.98224 214.89844 333.17578 214.89844 L 316.03125 214.89844 L 316.03125 219.29492 L 342.40625 219.29492 C 343.32664 219.29492 344.23703 219.34175 345.13281 219.43359 C 346.02864 219.5254 346.91058 219.66069 347.77734 219.83984 C 349.51079 220.19777 351.1814 220.72474 352.77148 221.4043 C 354.36157 222.08389 355.87062 222.91595 357.28125 223.88086 C 358.69188 224.84581 360.00409 225.9461 361.19922 227.16016 C 362.39438 228.37418 363.47242 229.70206 364.41602 231.12891 C 365.35957 232.55575 366.17023 234.08017 366.82617 235.68359 C 367.48211 237.28698 367.98419 238.96928 368.31641 240.71289 C 368.48233 241.58475 368.60498 242.47295 368.68359 243.37305 C 368.73877 244.01009 368.74257 244.65935 368.75391 245.30859 L 491.33789 244.94922 A 245.66929 245.66929 0 0 0 245.12891 0 z "
    transform="scale(0.26458333)" />
</svg>
