<?xml version="1.0" encoding="UTF-8" standalone="no"?>
<svg
  xmlns="http://www.w3.org/2000/svg"
   width="476"
   height="476"
   viewBox="0 0 476.22069 476.22075">
  <path
     style="display:inline;fill:#dce4ef;fill-opacity:1;fill-rule:evenodd;stroke-width:0.264583"
     d="M 237.78906,0 C 152.61813,-0.70159608 69.521273,48.590497 29.303526,123.6712 -12.121907,197.58673 -9.2441417,293.54997 36.533424,364.85144 81.008827,437.10148 166.41161,481.29017 251.07868,475.86729 336.16664,472.04394 416.52799,418.40765 452.70096,341.29672 490.193,265.18739 482.14346,169.3662 432.48364,100.57641 388.8613,38.064495 314.02147,-0.59963161 237.78906,0 Z M 214.9668,106.86328 c 25.70173,-0.50773 30.83197,37.17286 8.04366,46.35196 -6.68383,4.8612 -13.36765,9.72239 -20.05148,14.58359 47.64094,0.30325 95.34237,-0.61098 142.94492,0.46511 30.72698,5.44327 18.99221,53.25717 -10.52024,46.40989 -32.42476,0 -64.84952,0 -97.27428,0 -1.175,9.47228 13.99009,2.60447 20.20434,4.6875 37.00219,0.2963 74.06371,-0.60153 111.02764,0.46511 30.72705,5.44322 18.99227,53.25718 -10.5202,46.40989 -40.23726,0 -80.47452,0 -120.71178,0 -1.175,9.47228 13.99009,2.60447 20.20434,4.6875 29.38536,0.28909 58.82885,-0.59167 88.17608,0.46511 30.72706,5.44323 18.99235,53.25723 -10.5202,46.40989 -32.62008,0 -65.24015,0 -97.86022,0 -1.175,9.47228 13.99009,2.60447 20.20434,4.6875 17.20215,1.60441 38.7122,-5.54823 50.80649,10.5599 14.01192,20.67755 -9.63994,41.21554 -30.22398,36.31315 -32.22913,-0.71991 -64.64582,1.66883 -96.72259,-1.68477 -25.69424,-5.88642 -51.51432,-11.49539 -76.95998,-18.33615 -21.34991,-8.6044 -16.649764,-33.1664 -17.104285,-51.47164 0.477442,-32.24675 -0.984655,-64.63825 0.786713,-96.78886 5.502315,-17.82508 24.931442,-24.51385 38.030742,-35.94429 25.81017,-18.51926 51.16615,-37.71996 77.26754,-55.80228 3.32395,-1.67139 7.05337,-2.5218 10.77243,-2.46811 z" />
</svg>
