<svg id="Layer_1" data-name="Layer 1" xmlns="http://www.w3.org/2000/svg" viewBox="0 0 1366 768"><title>TalentMAP_Logos</title><path d="M270.2,384.93a4.09,4.09,0,0,1-2-7.68,19.57,19.57,0,1,0-18.88,0,4.09,4.09,0,0,1-4,7.16,27.75,27.75,0,1,1,26.79.05A4.07,4.07,0,0,1,270.2,384.93Z"/><path d="M271.12,429.33a4.06,4.06,0,0,1-.71-8C295.13,416.85,316.2,395.15,321,372c.45-2.19,2.6-4.26,4.79-3.81a4.06,4.06,0,0,1,3.15,4.79c-5.81,28.19-28.75,51.2-57.08,56.28A4,4,0,0,1,271.12,429.33Z"/><path d="M247.27,429.33a4,4,0,0,1-.72-.06,71.19,71.19,0,0,1,6-141c2.19-.2,4.42-.31,6.63-.31a70.76,70.76,0,0,1,40.69,12.77,4.06,4.06,0,0,1-4.64,6.65,62.69,62.69,0,0,0-36.05-11.31c-2,0-3.94.09-5.89.27a62.71,62.71,0,0,0-30.86,11.53,63.39,63.39,0,0,0-19.17,22,62.71,62.71,0,0,0-5.31,14,63.17,63.17,0,0,0,50,77.36,4.06,4.06,0,0,1-.71,8Z"/><path d="M247.33,407a4.07,4.07,0,0,1-1-.13,49.3,49.3,0,1,1,60.57-58.55,4.09,4.09,0,0,1-8,1.79A41.12,41.12,0,1,0,248.36,399a4.09,4.09,0,0,1-1,8.05Z"/><path d="M415.46,326.56H389.55v-18h73.26v18H436.89V403H415.46Z"/><path d="M501.6,308.6h25.63L556.76,403H534.18l-5.79-22.44H499.58L493.78,403H472.07Zm2.32,55.31H524l-2.17-8.69c-2.61-9.41-5.21-20.56-7.67-30.4h-.58c-2.32,10-4.78,21-7.38,30.4Z"/><path d="M579.34,308.6h21.28V385H638v18H579.34Z"/><path d="M666.64,308.6h59.07v18H687.92v19h32.14v17.81H687.92V385h39.24v18H666.64Z"/><path d="M758.28,308.6h21.86l24.61,46.91L814,376.36h.58c-.87-10-2.61-23.31-2.61-34.46V308.6h20.27V403H810.4l-24.61-47.05-9.27-20.56h-.58c.87,10.42,2.61,23,2.61,34.17V403H758.28Z"/><path d="M885.24,326.56H859.33v-18h73.26v18H906.67V403H885.24Z"/><path d="M961.53,308H976l18.24,50.67c2.32,6.51,4.49,13.32,6.81,19.84h.58c2.32-6.51,4.2-13.32,6.51-19.84l18-50.67h14.62v95h-11.29V350.74c0-8.4,1-19.69,1.59-28.09h-.58l-7.53,21.57-18,49.23h-8l-18-49.23-7.53-21.57h-.58c.58,8.4,1.45,19.69,1.45,28.09V403H961.53Z"/><path d="M1098.63,308h13.61l32.14,95H1131.5l-9-29h-34.6l-9.12,29h-12.31ZM1091,364.35h28.52L1115,349.86c-3.48-10.57-6.51-21-9.55-32h-.58c-2.89,11-5.94,21.42-9.41,32Z"/><path d="M1170.15,308h27.07c21.28,0,35.62,7.1,35.62,27.94,0,20-14.19,29.39-35,29.39h-15.64V403h-12Zm26.21,47.49c16.51,0,24.47-6.08,24.47-19.54,0-13.75-8.4-18.24-25-18.24h-13.61v37.79Z"/><path d="M270.22,407a4.09,4.09,0,0,1-1-8.05,41.33,41.33,0,0,0,28.94-27.86,4.09,4.09,0,1,1,7.83,2.37,49.57,49.57,0,0,1-34.71,33.42A4.08,4.08,0,0,1,270.22,407Z"/></svg>