<svg id="Layer_1" data-name="Layer 1" xmlns="http://www.w3.org/2000/svg" viewBox="0 0 1366 768"><title>TalentMAP_Logos</title><path d="M730.52,370.39a7.3,7.3,0,0,1-3.52-13.7,34.91,34.91,0,1,0-33.69-.07,7.3,7.3,0,1,1-7.08,12.77,49.51,49.51,0,1,1,47.8.1A7.26,7.26,0,0,1,730.52,370.39Z"/><path d="M732.15,449.59a7.23,7.23,0,0,1-1.27-14.36c44.09-7.91,81.69-46.61,90.2-87.9.81-3.91,4.64-7.61,8.55-6.8a7.24,7.24,0,0,1,5.62,8.55C824.89,399.36,784,440.41,733.44,449.47A7.18,7.18,0,0,1,732.15,449.59Z"/><path d="M689.6,449.59a7.2,7.2,0,0,1-1.29-.12A127,127,0,0,1,699,198c3.91-.36,7.89-.55,11.83-.55a126.24,126.24,0,0,1,72.59,22.78,7.23,7.23,0,1,1-8.28,11.87,111.84,111.84,0,0,0-64.31-20.18c-3.5,0-7,.16-10.5.48a111.88,111.88,0,0,0-55,20.56,113.09,113.09,0,0,0-34.2,39.33,111.87,111.87,0,0,0-9.47,24.92,112.68,112.68,0,0,0,89.21,138,7.23,7.23,0,0,1-1.27,14.36Z"/><path d="M689.71,409.8a7.27,7.27,0,0,1-1.85-.24,87.95,87.95,0,0,1,22.26-173c40.79,0,76.87,28.84,85.8,68.58a7.3,7.3,0,0,1-14.25,3.2,73.35,73.35,0,1,0-90.13,87.12,7.3,7.3,0,0,1-1.84,14.36Z"/><path d="M423.37,551.48H404.55v-13h53.2v13H438.93V607H423.37Z"/><path d="M485.93,538.45h18.61L526,607h-16.4l-4.21-16.29H484.46L480.25,607H464.48Zm1.68,40.17h14.62l-1.58-6.31c-1.89-6.83-3.79-14.93-5.57-22.08h-.42c-1.68,7.25-3.47,15.25-5.36,22.08Z"/><path d="M542.39,538.45h15.46V594H585v13H542.39Z"/><path d="M605.78,538.45h42.9v13H621.24v13.78h23.34v12.93H621.24V594h28.5v13h-44Z"/><path d="M672.34,538.45h15.88l17.88,34.07,6.73,15.14h.42c-.63-7.25-1.89-16.93-1.89-25V538.45h14.72V607H710.19l-17.87-34.17-6.73-14.93h-.42c.63,7.57,1.89,16.72,1.89,24.81V607H672.34Z"/><path d="M764.54,551.48H745.72v-13h53.2v13H780.11V607H764.54Z"/><path d="M820,538h10.51l13.25,36.8c1.68,4.73,3.26,9.67,4.94,14.41h.42c1.68-4.73,3-9.67,4.73-14.41l13-36.8h10.62v69h-8.2V569c0-6.1.74-14.3,1.16-20.4H870l-5.47,15.67-13,35.75h-5.78l-13-35.75-5.47-15.67h-.42c.42,6.1,1.05,14.3,1.05,20.4v38H820Z"/><path d="M919.52,538h9.88l23.34,69h-9.36l-6.52-21H911.74l-6.62,21h-8.94Zm-5.57,40.9h20.71l-3.26-10.52c-2.52-7.68-4.73-15.25-6.94-23.24H924c-2.1,8-4.31,15.56-6.83,23.24Z"/><path d="M971.46,538h19.66c15.46,0,25.87,5.15,25.87,20.29,0,14.51-10.31,21.35-25.45,21.35H980.18V607h-8.73Zm19,34.49c12,0,17.77-4.42,17.77-14.19,0-10-6.1-13.25-18.19-13.25h-9.88v27.44Z"/><path d="M730.54,409.79a7.3,7.3,0,0,1-1.84-14.36,73.73,73.73,0,0,0,51.63-49.71,7.3,7.3,0,1,1,14,4.22,88.42,88.42,0,0,1-61.92,59.61A7.28,7.28,0,0,1,730.54,409.79Z"/></svg>