<svg id="Layer_1" data-name="Layer 1" xmlns="http://www.w3.org/2000/svg" viewBox="0 0 1366 768"><defs><style>.cls-1{fill:#2b7abc;}.cls-2{fill:#1a5793;}.cls-3{fill:#0d72b9;}.cls-4{fill:#1f5593;}</style></defs><title>TalentMAP_Logos</title><path class="cls-1" d="M706.52,372.39a7.3,7.3,0,0,1-3.52-13.7,34.91,34.91,0,1,0-33.69-.07,7.3,7.3,0,1,1-7.08,12.77,49.51,49.51,0,1,1,47.8.1A7.26,7.26,0,0,1,706.52,372.39Z"/><path class="cls-2" d="M708.15,451.59a7.23,7.23,0,0,1-1.27-14.36c44.09-7.91,81.69-46.61,90.2-87.9.81-3.91,4.64-7.61,8.55-6.8a7.24,7.24,0,0,1,5.62,8.55C800.89,401.36,760,442.41,709.44,451.47A7.18,7.18,0,0,1,708.15,451.59Z"/><path class="cls-1" d="M665.6,451.59a7.2,7.2,0,0,1-1.29-.12A127,127,0,0,1,675,200c3.91-.36,7.89-.55,11.83-.55a126.24,126.24,0,0,1,72.59,22.78,7.23,7.23,0,0,1-8.28,11.87,111.84,111.84,0,0,0-64.31-20.18c-3.5,0-7,.16-10.5.48a111.88,111.88,0,0,0-55,20.56,113.09,113.09,0,0,0-34.2,39.33,111.87,111.87,0,0,0-9.47,24.92,112.68,112.68,0,0,0,89.21,138,7.23,7.23,0,0,1-1.27,14.36Z"/><path class="cls-2" d="M665.71,411.8a7.27,7.27,0,0,1-1.85-.24,87.95,87.95,0,0,1,22.26-173c40.79,0,76.87,28.84,85.8,68.58a7.3,7.3,0,0,1-14.25,3.2,73.35,73.35,0,1,0-90.13,87.12,7.3,7.3,0,0,1-1.84,14.36Z"/><path class="cls-3" d="M399.37,553.48H380.55v-13h53.2v13H414.93V609H399.37Z"/><path class="cls-3" d="M461.93,540.45h18.61L502,609h-16.4l-4.21-16.29H460.46L456.25,609H440.48Zm1.68,40.17h14.62l-1.58-6.31c-1.89-6.83-3.79-14.93-5.57-22.08h-.42c-1.68,7.25-3.47,15.25-5.36,22.08Z"/><path class="cls-3" d="M518.39,540.45h15.46V596H561v13H518.39Z"/><path class="cls-3" d="M581.78,540.45h42.9v13H597.24v13.78h23.34v12.93H597.24V596h28.5v13h-44Z"/><path class="cls-3" d="M648.34,540.45h15.88l17.88,34.07,6.73,15.14h.42c-.63-7.25-1.89-16.93-1.89-25V540.45h14.72V609H686.19l-17.87-34.17-6.73-14.93h-.42c.63,7.57,1.89,16.72,1.89,24.81V609H648.34Z"/><path class="cls-3" d="M740.54,553.48H721.72v-13h53.2v13H756.11V609H740.54Z"/><path class="cls-4" d="M796,540h10.51l13.25,36.8c1.68,4.73,3.26,9.67,4.94,14.41h.42c1.68-4.73,3-9.67,4.73-14.41l13-36.8h10.62v69h-8.2V571c0-6.1.74-14.3,1.16-20.4H846l-5.47,15.67-13,35.75h-5.78l-13-35.75-5.47-15.67h-.42c.42,6.1,1.05,14.3,1.05,20.4v38H796Z"/><path class="cls-4" d="M895.52,540h9.88l23.34,69h-9.36l-6.52-21H887.74l-6.62,21h-8.94Zm-5.57,40.9h20.71l-3.26-10.52c-2.52-7.68-4.73-15.25-6.94-23.24H900c-2.1,8-4.31,15.56-6.83,23.24Z"/><path class="cls-4" d="M947.46,540h19.66c15.46,0,25.87,5.15,25.87,20.29,0,14.51-10.31,21.35-25.45,21.35H956.18V609h-8.73Zm19,34.49c12,0,17.77-4.42,17.77-14.19,0-10-6.1-13.25-18.19-13.25h-9.88v27.44Z"/><path class="cls-1" d="M706.54,411.79a7.3,7.3,0,0,1-1.84-14.36,73.73,73.73,0,0,0,51.63-49.71,7.3,7.3,0,1,1,14,4.22,88.42,88.42,0,0,1-61.92,59.61A7.28,7.28,0,0,1,706.54,411.79Z"/></svg>