<?xml version="1.0" encoding="utf-8"?>
<!-- Generator: Adobe Illustrator 22.0.1, SVG Export Plug-In . SVG Version: 6.00 Build 0)  -->
<svg version="1.1" xmlns="http://www.w3.org/2000/svg" xmlns:xlink="http://www.w3.org/1999/xlink" x="0px" y="0px"
	 viewBox="0 0 260.3 266.3" style="enable-background:new 0 0 260.3 266.3;" xml:space="preserve">
<style type="text/css">
	.st0{fill:none;stroke:#006838;stroke-width:14.6002;stroke-linecap:round;stroke-miterlimit:10;}
	.st1{fill:#1A5793;}
	.st2{fill:#2B7ABC;}
	.st3{display:none;}
	.st4{display:inline;}
</style>
<g id="Layer_1">
	<path class="st0" d="M149.6,173.6"/>
	<g>
		<path class="st1" d="M151.5,259.9c-3.4,0-6.5-2.5-7.1-6c-0.7-3.9,1.9-7.7,5.8-8.4c44.1-7.9,81.7-46.6,90.2-87.9
			c0.8-3.9,4.6-7.6,8.5-6.8c3.9,0.8,6.4,4.6,5.6,8.5c-10.4,50.3-51.3,91.3-101.8,100.4C152.3,259.9,151.9,259.9,151.5,259.9z"/>
	</g>
	<g>
		<path class="st2" d="M108.9,259.9c-0.4,0-0.9,0-1.3-0.1C47.1,249,3.2,196.4,3.2,134.8c0-10.4,1.3-20.7,3.7-30.7
			c2.4-9.8,6-19.2,10.7-28.1c4.6-8.8,10.2-17,16.7-24.5c6.5-7.4,13.8-14.1,21.8-19.9C65.1,25.2,74.8,20,85,16.1
			c10.7-4.1,21.9-6.7,33.3-7.7c3.9-0.4,7.9-0.5,11.8-0.5c26.1,0,51.2,7.9,72.6,22.8c3.3,2.3,4.1,6.8,1.8,10.1
			c-2.3,3.3-6.8,4.1-10.1,1.8c-18.9-13.2-41.2-20.2-64.3-20.2c-3.5,0-7,0.2-10.5,0.5c-10.1,0.9-20.1,3.2-29.5,6.8
			c-9,3.4-17.6,8.1-25.5,13.7C57.6,48.4,51,54.4,45.3,61c-5.8,6.6-10.8,13.9-14.8,21.7c-4.1,7.9-7.3,16.3-9.5,24.9
			c-2.2,8.9-3.3,18-3.3,27.2c0,54.6,38.9,101.1,92.5,110.8c3.9,0.7,6.5,4.5,5.8,8.4C115.4,257.5,112.4,259.9,108.9,259.9z"/>
	</g>
</g>
<g id="Layer_2" class="st3">
	<g class="st4">
		<path class="st2" d="M149.9,180.7c-2.6,0-5.1-1.4-6.4-3.8c-1.9-3.5-0.7-8,2.9-9.9c11.2-6.1,18.1-17.9,18.1-30.6
			c0-19.3-15.7-34.9-34.9-34.9s-34.9,15.7-34.9,34.9c0,12.7,6.9,24.4,18,30.6c3.5,2,4.8,6.4,2.8,9.9c-2,3.5-6.4,4.8-9.9,2.8
			C89.8,171,80,154.4,80,136.4c0-27.3,22.2-49.5,49.5-49.5s49.5,22.2,49.5,49.5c0,18.1-9.8,34.7-25.7,43.4
			C152.2,180.4,151,180.7,149.9,180.7z"/>
	</g>
</g>
<g id="Layer_3" class="st3">
	<g class="st4">
		<path class="st1" d="M109,220.1c-0.6,0-1.2-0.1-1.8-0.2c-38.7-10.1-65.7-45.1-65.7-85.1c0-48.5,39.4-87.9,87.9-87.9
			c40.8,0,76.9,28.8,85.8,68.6c0.9,3.9-1.6,7.8-5.5,8.7c-3.9,0.9-7.8-1.6-8.7-5.5c-7.4-33.1-37.5-57.2-71.6-57.2
			c-40.4,0-73.3,32.9-73.3,73.3c0,33.4,22.5,62.6,54.8,71c3.9,1,6.2,5,5.2,8.9C115.2,218,112.3,220.1,109,220.1z"/>
	</g>
	<g class="st4">
		<path class="st2" d="M149.9,220.1c-3.2,0-6.2-2.2-7.1-5.5c-1-3.9,1.3-7.9,5.2-8.9c24.5-6.4,44.3-25.4,51.6-49.7
			c1.2-3.9,5.2-6,9.1-4.9c3.9,1.2,6,5.2,4.9,9.1c-8.8,29.1-32.5,51.9-61.9,59.6C151.1,220.1,150.5,220.1,149.9,220.1z"/>
	</g>
</g>
</svg>
